<mxfile host="65bd71144e">
    <diagram id="765Rc0Ca6S4IrKGCLNSt" name="Page-1">
        <mxGraphModel dx="445" dy="441" grid="1" gridSize="10" guides="1" tooltips="1" connect="1" arrows="1" fold="1" page="1" pageScale="1" pageWidth="850" pageHeight="1100" math="0" shadow="0">
            <root>
                <mxCell id="0"/>
                <mxCell id="1" parent="0"/>
                <mxCell id="2" value="" style="rounded=1;whiteSpace=wrap;html=1;absoluteArcSize=1;arcSize=14;strokeWidth=2;" vertex="1" parent="1">
                    <mxGeometry x="120" y="140" width="600" height="570" as="geometry"/>
                </mxCell>
                <mxCell id="3" value="&lt;font style=&quot;font-size: 27px&quot;&gt;Division using loops&lt;/font&gt;" style="rounded=1;whiteSpace=wrap;html=1;absoluteArcSize=1;arcSize=14;strokeWidth=2;align=left;" vertex="1" parent="1">
                    <mxGeometry x="140" y="160" width="530" height="100" as="geometry"/>
                </mxCell>
                <mxCell id="4" value="&lt;h5 style=&quot;padding: 0px ; font-size: 20px ; font-weight: 500 ; line-height: 1 ; letter-spacing: 0.02em ; font-family: &amp;#34;roboto&amp;#34; , &amp;#34;helvetica&amp;#34; , &amp;#34;arial&amp;#34; , sans-serif ; margin: 24px 0px 16px ; color: rgba(0 , 0 , 0 , 0.87)&quot;&gt;Input two integers&lt;br&gt;for the division loop&lt;/h5&gt;" style="text;html=1;align=center;verticalAlign=middle;resizable=0;points=[];autosize=1;strokeColor=none;fillColor=none;fontSize=27;" vertex="1" parent="1">
                    <mxGeometry x="150" y="300" width="200" height="90" as="geometry"/>
                </mxCell>
                <mxCell id="5" value="" style="line;strokeWidth=2;html=1;labelBackgroundColor=none;fontSize=27;" vertex="1" parent="1">
                    <mxGeometry x="170" y="450" width="200" height="10" as="geometry"/>
                </mxCell>
                <mxCell id="8" value="" style="line;strokeWidth=2;html=1;labelBackgroundColor=none;fontSize=27;" vertex="1" parent="1">
                    <mxGeometry x="170" y="530" width="200" height="10" as="geometry"/>
                </mxCell>
                <mxCell id="10" value="&lt;font style=&quot;font-size: 20px&quot;&gt;Click&lt;/font&gt;" style="rounded=1;whiteSpace=wrap;html=1;labelBackgroundColor=none;fontSize=27;" vertex="1" parent="1">
                    <mxGeometry x="190" y="600" width="100" height="40" as="geometry"/>
                </mxCell>
            </root>
        </mxGraphModel>
    </diagram>
</mxfile>